<?xml version="1.0" encoding="UTF-8"?>
<svg xmlns="http://www.w3.org/2000/svg" xmlns:xlink="http://www.w3.org/1999/xlink" width="64px" height="64px" viewBox="0 0 64 64" version="1.1">
<g id="surface1">
<path style=" stroke:none;fill-rule:nonzero;fill:rgb(100%,100%,100%);fill-opacity:1;" d="M 32 0 C 29.078125 0 26.710938 2.363281 26.710938 5.289062 C 26.710938 8.207031 29.078125 10.570312 32 10.570312 C 34.921875 10.570312 37.285156 8.207031 37.285156 5.289062 C 37.285156 2.363281 34.921875 0 32 0 Z M 32 0 "/>
<path style=" stroke:none;fill-rule:nonzero;fill:rgb(100%,100%,100%);fill-opacity:1;" d="M 32 53.429688 C 29.078125 53.429688 26.710938 55.792969 26.710938 58.710938 C 26.710938 61.636719 29.078125 64 32 64 C 34.921875 64 37.285156 61.636719 37.285156 58.710938 C 37.285156 55.792969 34.921875 53.429688 32 53.429688 Z M 32 53.429688 "/>
<path style=" stroke:none;fill-rule:nonzero;fill:rgb(100%,100%,100%);fill-opacity:1;" d="M 9.375 9.375 C 7.308594 11.4375 7.308594 14.785156 9.375 16.847656 C 11.4375 18.910156 14.785156 18.910156 16.847656 16.847656 C 18.910156 14.785156 18.910156 11.4375 16.847656 9.375 C 14.785156 7.308594 11.4375 7.308594 9.375 9.375 Z M 9.375 9.375 "/>
<path style=" stroke:none;fill-rule:nonzero;fill:rgb(100%,100%,100%);fill-opacity:1;" d="M 47.152344 47.152344 C 45.089844 49.214844 45.089844 52.5625 47.152344 54.625 C 49.214844 56.691406 52.5625 56.691406 54.625 54.625 C 56.6875 52.5625 56.6875 49.214844 54.625 47.152344 C 52.5625 45.089844 49.214844 45.089844 47.152344 47.152344 Z M 47.152344 47.152344 "/>
<path style=" stroke:none;fill-rule:nonzero;fill:rgb(100%,100%,100%);fill-opacity:1;" d="M 10.570312 32 C 10.570312 29.082031 8.207031 26.714844 5.289062 26.714844 C 2.363281 26.710938 0 29.082031 0 32 C 0 34.921875 2.363281 37.289062 5.289062 37.289062 C 8.207031 37.289062 10.570312 34.921875 10.570312 32 Z M 10.570312 32 "/>
<path style=" stroke:none;fill-rule:nonzero;fill:rgb(100%,100%,100%);fill-opacity:1;" d="M 58.710938 26.710938 C 55.792969 26.710938 53.429688 29.082031 53.429688 32 C 53.429688 34.921875 55.792969 37.289062 58.710938 37.289062 C 61.636719 37.289062 64 34.921875 64 32 C 64 29.082031 61.636719 26.710938 58.710938 26.710938 Z M 58.710938 26.710938 "/>
<path style=" stroke:none;fill-rule:nonzero;fill:rgb(100%,100%,100%);fill-opacity:1;" d="M 9.375 47.152344 C 7.3125 49.214844 7.3125 52.5625 9.375 54.625 C 11.4375 56.691406 14.785156 56.691406 16.847656 54.625 C 18.910156 52.5625 18.910156 49.214844 16.847656 47.152344 C 14.785156 45.089844 11.4375 45.089844 9.375 47.152344 Z M 9.375 47.152344 "/>
<path style=" stroke:none;fill-rule:nonzero;fill:rgb(100%,100%,100%);fill-opacity:1;" d="M 54.625 16.847656 C 56.691406 14.785156 56.691406 11.4375 54.625 9.375 C 52.5625 7.308594 49.214844 7.308594 47.152344 9.375 C 45.089844 11.4375 45.089844 14.785156 47.152344 16.847656 C 49.214844 18.910156 52.5625 18.910156 54.625 16.847656 Z M 54.625 16.847656 "/>
</g>
</svg>
